PathFileType	4	(X/Y/Z)	C:\Users\italobelli\Desktop\GitHub\PTbot_officialCBL\Personal_Results\FLX03_noisy2.trc
DataRate	CameraRate	NumFrames	NumMarkers	Units	OrigDataRate	OrigDataStartFrame	OrigNumFrames
106.125000	106.125000	47	9	m	106.125000	1	850
Frame#	Time		gu		centelbow		EpL		centpxt8		centijc7		ij		ts		aa		ai
			X1	Y1	Z1	X2	Y2	Z2	X3	Y3	Z3	X4	Y4	Z4	X5	Y5	Z5	X6	Y6	Z6	X7	Y7	Z7	X8	Y8	Z8	X9	Y9	Z9

1	0	-0.079854	-0.015312	0.16449	-0.1194	-0.25518	0.20297	-0.10009	-0.25059	0.22838	-0.046816	-0.15316	-0.008669	-0.046816	0.031938	-0.008669	0	0	0	-0.13718	0.023408	0.051793	-0.10966	0.021682	0.16783	-0.14975	-0.089213	0.058454
2	0.0094229	-0.079889	-0.015321	0.16446	-0.11966	-0.25519	0.20305	-0.10034	-0.25062	0.22846	-0.046816	-0.15316	-0.008669	-0.046816	0.031938	-0.008669	0	0	0	-0.13718	0.023417	0.051775	-0.10968	0.02167	0.16782	-0.14976	-0.089205	0.058417
3	0.018846	-0.079923	-0.01533	0.16444	-0.11991	-0.2552	0.20314	-0.10059	-0.25065	0.22855	-0.046816	-0.15316	-0.008669	-0.046816	0.031938	-0.008669	0	0	0	-0.13718	0.023425	0.051757	-0.10969	0.021659	0.1678	-0.14977	-0.089197	0.05838
4	0.028269	-0.079956	-0.015339	0.16441	-0.12015	-0.25521	0.20322	-0.10082	-0.25068	0.22863	-0.046816	-0.15316	-0.008669	-0.046816	0.031938	-0.008669	0	0	0	-0.13718	0.023432	0.051739	-0.10971	0.021647	0.16779	-0.14978	-0.08919	0.058345
5	0.037691	-0.079989	-0.01535	0.16438	-0.12038	-0.25523	0.20331	-0.10105	-0.25071	0.22872	-0.046816	-0.15316	-0.008669	-0.046816	0.031938	-0.008669	0	0	0	-0.13718	0.023439	0.051722	-0.10973	0.021636	0.16777	-0.14978	-0.089183	0.05831
6	0.047114	-0.080021	-0.015361	0.16436	-0.12059	-0.25525	0.20339	-0.10126	-0.25075	0.22881	-0.046816	-0.15316	-0.008669	-0.046816	0.031938	-0.008669	0	0	0	-0.13719	0.023446	0.051705	-0.10975	0.021624	0.16776	-0.14979	-0.089177	0.058277
7	0.056537	-0.080053	-0.015372	0.16433	-0.1208	-0.25527	0.20348	-0.10147	-0.25079	0.22889	-0.046816	-0.15316	-0.008669	-0.046816	0.031938	-0.008669	0	0	0	-0.13719	0.023452	0.051688	-0.10976	0.021613	0.16774	-0.1498	-0.089172	0.058245
8	0.06596	-0.080084	-0.015384	0.1643	-0.121	-0.2553	0.20356	-0.10166	-0.25083	0.22898	-0.046816	-0.15316	-0.008669	-0.046816	0.031938	-0.008669	0	0	0	-0.13719	0.023457	0.051672	-0.10978	0.021602	0.16773	-0.14981	-0.089166	0.058213
9	0.075383	-0.080115	-0.015396	0.16428	-0.12119	-0.25533	0.20365	-0.10185	-0.25087	0.22907	-0.046816	-0.15316	-0.008669	-0.046816	0.031938	-0.008669	0	0	0	-0.13719	0.023462	0.051656	-0.1098	0.021592	0.16771	-0.14982	-0.089162	0.058183
10	0.084806	-0.080145	-0.015409	0.16425	-0.12137	-0.25536	0.20374	-0.10202	-0.25091	0.22916	-0.046816	-0.15316	-0.008669	-0.046816	0.031938	-0.008669	0	0	0	-0.1372	0.023466	0.05164	-0.10981	0.021581	0.1677	-0.14983	-0.089158	0.058154
11	0.094229	-0.080174	-0.015422	0.16422	-0.12154	-0.25539	0.20383	-0.10219	-0.25096	0.22925	-0.046816	-0.15316	-0.008669	-0.046816	0.031938	-0.008669	0	0	0	-0.1372	0.02347	0.051625	-0.10983	0.02157	0.16768	-0.14984	-0.089154	0.058125
12	0.10365	-0.080203	-0.015436	0.1642	-0.1217	-0.25543	0.20392	-0.10235	-0.25101	0.22934	-0.046816	-0.15316	-0.008669	-0.046816	0.031938	-0.008669	0	0	0	-0.1372	0.023474	0.051609	-0.10985	0.02156	0.16767	-0.14985	-0.08915	0.058097
13	0.11307	-0.080231	-0.01545	0.16417	-0.12185	-0.25547	0.20401	-0.1025	-0.25105	0.22943	-0.046816	-0.15316	-0.008669	-0.046816	0.031938	-0.008669	0	0	0	-0.1372	0.023477	0.051595	-0.10986	0.02155	0.16766	-0.14986	-0.089148	0.058071
14	0.1225	-0.080258	-0.015465	0.16415	-0.12199	-0.25552	0.2041	-0.10264	-0.25111	0.22952	-0.046816	-0.15316	-0.008669	-0.046816	0.031938	-0.008669	0	0	0	-0.13721	0.023479	0.05158	-0.10988	0.02154	0.16764	-0.14986	-0.089145	0.058045
15	0.13192	-0.080285	-0.01548	0.16412	-0.12212	-0.25556	0.20419	-0.10277	-0.25116	0.22961	-0.046816	-0.15316	-0.008669	-0.046816	0.031938	-0.008669	0	0	0	-0.13721	0.023481	0.051566	-0.1099	0.02153	0.16763	-0.14987	-0.089143	0.05802
16	0.14134	-0.080311	-0.015495	0.16409	-0.12225	-0.25561	0.20428	-0.1029	-0.25121	0.2297	-0.046816	-0.15316	-0.008669	-0.046816	0.031938	-0.008669	0	0	0	-0.13721	0.023483	0.051552	-0.10991	0.02152	0.16761	-0.14988	-0.089141	0.057996
17	0.15077	-0.080337	-0.015511	0.16407	-0.12237	-0.25566	0.20438	-0.10302	-0.25127	0.2298	-0.046816	-0.15316	-0.008669	-0.046816	0.031938	-0.008669	0	0	0	-0.13722	0.023484	0.051539	-0.10993	0.02151	0.1676	-0.14989	-0.08914	0.057973
18	0.16019	-0.080361	-0.015527	0.16405	-0.12248	-0.25571	0.20447	-0.10313	-0.25132	0.22989	-0.046816	-0.15316	-0.008669	-0.046816	0.031938	-0.008669	0	0	0	-0.13722	0.023485	0.051526	-0.10994	0.0215	0.16759	-0.1499	-0.089139	0.05795
19	0.16961	-0.080386	-0.015544	0.16402	-0.12258	-0.25577	0.20456	-0.10323	-0.25138	0.22998	-0.046816	-0.15316	-0.008669	-0.046816	0.031938	-0.008669	0	0	0	-0.13723	0.023486	0.051513	-0.10996	0.021491	0.16758	-0.14991	-0.089138	0.057929
20	0.17903	-0.080409	-0.01556	0.164	-0.12267	-0.25582	0.20466	-0.10332	-0.25144	0.23008	-0.046816	-0.15316	-0.008669	-0.046816	0.031938	-0.008669	0	0	0	-0.13723	0.023486	0.051501	-0.10997	0.021481	0.16756	-0.14992	-0.089138	0.057908
21	0.18846	-0.080432	-0.015577	0.16397	-0.12276	-0.25588	0.20475	-0.10341	-0.2515	0.23017	-0.046816	-0.15316	-0.008669	-0.046816	0.031938	-0.008669	0	0	0	-0.13723	0.023486	0.051489	-0.10999	0.021472	0.16755	-0.14993	-0.089138	0.057888
22	0.19788	-0.080454	-0.015595	0.16395	-0.12284	-0.25594	0.20484	-0.10349	-0.25156	0.23027	-0.046816	-0.15316	-0.008669	-0.046816	0.031938	-0.008669	0	0	0	-0.13724	0.023485	0.051477	-0.11	0.021463	0.16754	-0.14994	-0.089138	0.057869
23	0.2073	-0.080475	-0.015612	0.16393	-0.12291	-0.25601	0.20494	-0.10357	-0.25162	0.23036	-0.046816	-0.15316	-0.008669	-0.046816	0.031938	-0.008669	0	0	0	-0.13724	0.023484	0.051466	-0.11002	0.021454	0.16753	-0.14995	-0.089139	0.05785
24	0.21673	-0.080495	-0.01563	0.16391	-0.12298	-0.25607	0.20503	-0.10364	-0.25169	0.23046	-0.046816	-0.15316	-0.008669	-0.046816	0.031938	-0.008669	0	0	0	-0.13725	0.023483	0.051455	-0.11003	0.021445	0.16752	-0.14995	-0.08914	0.057833
25	0.22615	-0.080515	-0.015648	0.16388	-0.12304	-0.25613	0.20513	-0.1037	-0.25175	0.23056	-0.046816	-0.15316	-0.008669	-0.046816	0.031938	-0.008669	0	0	0	-0.13725	0.023482	0.051445	-0.11004	0.021436	0.16751	-0.14996	-0.089141	0.057816
26	0.23557	-0.080534	-0.015667	0.16386	-0.12309	-0.2562	0.20523	-0.10375	-0.25182	0.23065	-0.046816	-0.15316	-0.008669	-0.046816	0.031938	-0.008669	0	0	0	-0.13725	0.02348	0.051435	-0.11006	0.021427	0.1675	-0.14997	-0.089143	0.0578
27	0.24499	-0.080552	-0.015685	0.16384	-0.12314	-0.25627	0.20532	-0.1038	-0.25188	0.23075	-0.046816	-0.15316	-0.008669	-0.046816	0.031938	-0.008669	0	0	0	-0.13726	0.023478	0.051425	-0.11007	0.021418	0.16749	-0.14998	-0.089144	0.057784
28	0.25442	-0.08057	-0.015704	0.16382	-0.12318	-0.25634	0.20542	-0.10384	-0.25195	0.23085	-0.046816	-0.15316	-0.008669	-0.046816	0.031938	-0.008669	0	0	0	-0.13726	0.023476	0.051416	-0.11008	0.02141	0.16748	-0.14999	-0.089146	0.057769
29	0.26384	-0.080587	-0.015723	0.1638	-0.12322	-0.25641	0.20552	-0.10388	-0.25202	0.23095	-0.046816	-0.15316	-0.008669	-0.046816	0.031938	-0.008669	0	0	0	-0.13727	0.023474	0.051407	-0.11009	0.021401	0.16747	-0.15	-0.089148	0.057755
30	0.27326	-0.080602	-0.015742	0.16378	-0.12324	-0.25648	0.20561	-0.10391	-0.25208	0.23104	-0.046816	-0.15316	-0.008669	-0.046816	0.031938	-0.008669	0	0	0	-0.13727	0.023471	0.051398	-0.11011	0.021393	0.16746	-0.15001	-0.08915	0.057741
31	0.28269	-0.080618	-0.015761	0.16376	-0.12327	-0.25655	0.20571	-0.10394	-0.25215	0.23114	-0.046816	-0.15316	-0.008669	-0.046816	0.031938	-0.008669	0	0	0	-0.13728	0.023468	0.05139	-0.11012	0.021384	0.16745	-0.15002	-0.089153	0.057729
32	0.29211	-0.080632	-0.01578	0.16374	-0.12329	-0.25662	0.20581	-0.10396	-0.25222	0.23124	-0.046816	-0.15316	-0.008669	-0.046816	0.031938	-0.008669	0	0	0	-0.13728	0.023465	0.051383	-0.11013	0.021376	0.16744	-0.15003	-0.089156	0.057716
33	0.30153	-0.080645	-0.015799	0.16373	-0.1233	-0.2567	0.20591	-0.10398	-0.25229	0.23134	-0.046816	-0.15316	-0.008669	-0.046816	0.031938	-0.008669	0	0	0	-0.13729	0.023462	0.051375	-0.11014	0.021368	0.16744	-0.15004	-0.089158	0.057705
34	0.31095	-0.080658	-0.015819	0.16371	-0.12331	-0.25677	0.20601	-0.10399	-0.25236	0.23144	-0.046816	-0.15316	-0.008669	-0.046816	0.031938	-0.008669	0	0	0	-0.13729	0.023459	0.051369	-0.11015	0.02136	0.16743	-0.15005	-0.089161	0.057694
35	0.32038	-0.08067	-0.015838	0.16369	-0.12332	-0.25685	0.2061	-0.104	-0.25243	0.23154	-0.046816	-0.15316	-0.008669	-0.046816	0.031938	-0.008669	0	0	0	-0.1373	0.023455	0.051362	-0.11016	0.021352	0.16742	-0.15006	-0.089165	0.057683
36	0.3298	-0.080681	-0.015858	0.16368	-0.12332	-0.25692	0.2062	-0.104	-0.2525	0.23163	-0.046816	-0.15316	-0.008669	-0.046816	0.031938	-0.008669	0	0	0	-0.1373	0.023452	0.051356	-0.11017	0.021344	0.16742	-0.15006	-0.089168	0.057673
37	0.33922	-0.080691	-0.015878	0.16366	-0.12331	-0.25699	0.2063	-0.104	-0.25257	0.23173	-0.046816	-0.15316	-0.008669	-0.046816	0.031938	-0.008669	0	0	0	-0.13731	0.023448	0.051351	-0.11018	0.021336	0.16741	-0.15007	-0.089171	0.057664
38	0.34865	-0.0807	-0.015897	0.16365	-0.1233	-0.25707	0.2064	-0.10399	-0.25264	0.23183	-0.046816	-0.15316	-0.008669	-0.046816	0.031938	-0.008669	0	0	0	-0.13731	0.023444	0.051346	-0.11019	0.021328	0.16741	-0.15008	-0.089175	0.057655
39	0.35807	-0.080709	-0.015917	0.16363	-0.12329	-0.25715	0.2065	-0.10398	-0.25271	0.23193	-0.046816	-0.15316	-0.008669	-0.046816	0.031938	-0.008669	0	0	0	-0.13732	0.02344	0.051341	-0.11019	0.02132	0.16741	-0.15009	-0.089178	0.057647
40	0.36749	-0.080716	-0.015937	0.16362	-0.12328	-0.25722	0.2066	-0.10397	-0.25278	0.23203	-0.046816	-0.15316	-0.008669	-0.046816	0.031938	-0.008669	0	0	0	-0.13732	0.023436	0.051337	-0.1102	0.021312	0.1674	-0.1501	-0.089182	0.057639
41	0.37691	-0.080723	-0.015956	0.16361	-0.12326	-0.2573	0.2067	-0.10395	-0.25285	0.23213	-0.046816	-0.15316	-0.008669	-0.046816	0.031938	-0.008669	0	0	0	-0.13733	0.023432	0.051333	-0.11021	0.021305	0.1674	-0.15011	-0.089185	0.057632
42	0.38634	-0.080729	-0.015976	0.1636	-0.12323	-0.25737	0.2068	-0.10393	-0.25292	0.23223	-0.046816	-0.15316	-0.008669	-0.046816	0.031938	-0.008669	0	0	0	-0.13733	0.023428	0.05133	-0.11022	0.021297	0.1674	-0.15012	-0.089189	0.057625
43	0.39576	-0.080734	-0.015995	0.16359	-0.12321	-0.25745	0.2069	-0.10391	-0.25299	0.23233	-0.046816	-0.15316	-0.008669	-0.046816	0.031938	-0.008669	0	0	0	-0.13734	0.023424	0.051327	-0.11022	0.021289	0.1674	-0.15013	-0.089193	0.057619
44	0.40518	-0.080737	-0.016015	0.16358	-0.12318	-0.25752	0.207	-0.10388	-0.25305	0.23243	-0.046816	-0.15316	-0.008669	-0.046816	0.031938	-0.008669	0	0	0	-0.13734	0.02342	0.051324	-0.11023	0.021282	0.1674	-0.15014	-0.089197	0.057613
45	0.41461	-0.08074	-0.016034	0.16357	-0.12315	-0.25759	0.20709	-0.10385	-0.25312	0.23253	-0.046816	-0.15316	-0.008669	-0.046816	0.031938	-0.008669	0	0	0	-0.13735	0.023415	0.051322	-0.11023	0.021274	0.1674	-0.15015	-0.089201	0.057607
46	0.42403	-0.080743	-0.016053	0.16356	-0.12312	-0.25767	0.20719	-0.10382	-0.25319	0.23263	-0.046816	-0.15316	-0.008669	-0.046816	0.031938	-0.008669	0	0	0	-0.13735	0.023411	0.051321	-0.11024	0.021267	0.1674	-0.15016	-0.089204	0.057603
47	0.43345	-0.080744	-0.016073	0.16355	-0.12308	-0.25774	0.20729	-0.10379	-0.25326	0.23273	-0.046816	-0.15316	-0.008669	-0.046816	0.031938	-0.008669	0	0	0	-0.13736	0.023407	0.05132	-0.11024	0.021259	0.16741	-0.15017	-0.089208	0.057598
